<svg id="Capa_1" data-name="Capa 1" xmlns="http://www.w3.org/2000/svg" viewBox="0 0 1698.8 399.3"><defs><style>.cls-1{fill:#486761;}.cls-2{fill:#85b9b3;}</style></defs><title>LOGOTIPO ÍTACA SVG</title><path class="cls-1" d="M454.5,357.8v49h-8.1v-49H428.5v-7.4h43.9v7.4Z" transform="translate(-3.8 -8.8)"/><path class="cls-1" d="M551,350.3c6.9,0,12,1.4,15.5,4.2s5.2,6.9,5.2,12.4c0,4.8-1.3,8.6-4.1,11.3s-6.8,4.3-12.2,4.9l21.7,23.8H566.6l-21.4-23.8h-5.4v23.8h-8.1V350.4l19.3-.1Zm-11.2,25.8h6.5c6.4,0,10.8-.7,13.3-2.1s3.7-3.8,3.7-7.2-1.1-6-3.4-7.3-6.8-2-13.6-2h-6.5v18.6Z" transform="translate(-3.8 -8.8)"/><path class="cls-1" d="M669,406.8l-5-14.6H640.5l-4.8,14.6h-8.3l20.7-56.5h8.7l20.8,56.5ZM642.5,386h19.3l-9.7-27.9Z" transform="translate(-3.8 -8.8)"/><path class="cls-1" d="M763.9,375.8c4.1.8,7.1,2.4,9.1,4.8s3,5.6,3,9.7c0,5.7-1.8,9.9-5.5,12.6s-9.6,4-17.6,4H735.8V350.4h14.9a75,75,0,0,1,10,.5,12.9,12.9,0,0,1,9.8,6.7,15,15,0,0,1,1.6,7.2,12.15,12.15,0,0,1-2,7.1A13.21,13.21,0,0,1,763.9,375.8Zm-20.2-2.2h5.8c5.4,0,9.2-.6,11.2-1.8s3-3.3,3-6.2-.9-5.1-2.7-6.3-5.6-1.7-11.5-1.7h-5.8Zm0,25.9h6.9c6.5,0,10.9-.7,13.3-2.1s3.6-3.9,3.6-7.4-1.1-6.1-3.3-7.5-6.8-2.1-13.6-2.1h-6.9v19.1Z" transform="translate(-3.8 -8.8)"/><path class="cls-1" d="M872.4,406.8l-5-14.6H843.9l-4.8,14.6h-8.3l20.7-56.5h8.7L881,406.8ZM845.9,386h19.3l-9.7-27.9Z" transform="translate(-3.8 -8.8)"/><path class="cls-1" d="M931.2,397.9l6-4.2a9.21,9.21,0,0,0,3.5,5.1,10.26,10.26,0,0,0,5.9,1.7c2.8,0,4.8-.9,6-2.8s1.8-5,1.8-9.6V350.3h8.1v39.6c0,6-1.3,10.6-3.9,13.6s-6.5,4.5-11.8,4.5a16.64,16.64,0,0,1-9.3-2.6A15.61,15.61,0,0,1,931.2,397.9Z" transform="translate(-3.8 -8.8)"/><path class="cls-1" d="M1046.2,349.1a23.36,23.36,0,0,1,9.7,2,20.3,20.3,0,0,1,7.5,5.9,31.05,31.05,0,0,1,5.1,9.7,40.72,40.72,0,0,1,1.7,11.9,39.75,39.75,0,0,1-1.7,11.9,28.64,28.64,0,0,1-5.1,9.6,21.38,21.38,0,0,1-7.5,5.9,24.52,24.52,0,0,1-19.4,0,20.3,20.3,0,0,1-7.5-5.9,31.3,31.3,0,0,1-5.2-9.7,40.23,40.23,0,0,1-1.7-11.9,40.72,40.72,0,0,1,1.7-11.9,29.1,29.1,0,0,1,5.1-9.7,21.38,21.38,0,0,1,7.5-5.9A25.93,25.93,0,0,1,1046.2,349.1Zm-15.6,29.4c0,6.8,1.4,12.2,4.2,16.1a13.07,13.07,0,0,0,11.3,5.9,13.3,13.3,0,0,0,11.3-5.9c2.8-3.9,4.2-9.3,4.2-16s-1.4-12.1-4.2-16.1a13.16,13.16,0,0,0-11.3-6,13.3,13.3,0,0,0-11.3,5.9C1032.1,366.4,1030.6,371.8,1030.6,378.5Z" transform="translate(-3.8 -8.8)"/><path class="cls-1" d="M1192.1,393.6l6.9-2.4a13.33,13.33,0,0,0,4.3,7,11.25,11.25,0,0,0,7.3,2.4,8.62,8.62,0,0,0,9.2-9.3,8.16,8.16,0,0,0-2-5.6c-1.3-1.5-4.3-3.1-9-5.1-5.4-2.2-9.2-4.6-11.4-7.1a13.65,13.65,0,0,1-3.3-9.4,14.77,14.77,0,0,1,4.4-10.9,15.3,15.3,0,0,1,11.3-4.3,17.94,17.94,0,0,1,8.6,2.1,21.35,21.35,0,0,1,7,6.5l-5.4,5.3a18.18,18.18,0,0,0-5-5,9.46,9.46,0,0,0-5.2-1.7,8,8,0,0,0-5.6,2,6.64,6.64,0,0,0-2.1,5.1,7.44,7.44,0,0,0,1.4,4.4,12.44,12.44,0,0,0,4.4,3.4c1.8.9,4,1.9,6.5,2.9a42,42,0,0,1,4.5,2c3.4,2.2,5.7,4.4,7,6.6a18.67,18.67,0,0,1-2.8,20.6,16.82,16.82,0,0,1-12.3,4.7,19.71,19.71,0,0,1-12.2-3.8A16.5,16.5,0,0,1,1192.1,393.6Z" transform="translate(-3.8 -8.8)"/><path class="cls-1" d="M1307.9,349.1a23.36,23.36,0,0,1,9.7,2,20.3,20.3,0,0,1,7.5,5.9,31.05,31.05,0,0,1,5.1,9.7,40.72,40.72,0,0,1,1.7,11.9,39.75,39.75,0,0,1-1.7,11.9,28.64,28.64,0,0,1-5.1,9.6,21.38,21.38,0,0,1-7.5,5.9,24.52,24.52,0,0,1-19.4,0,20.3,20.3,0,0,1-7.5-5.9,31.3,31.3,0,0,1-5.2-9.7,40.23,40.23,0,0,1-1.7-11.9,40.72,40.72,0,0,1,1.7-11.9,29.1,29.1,0,0,1,5.1-9.7,21.38,21.38,0,0,1,7.5-5.9A26.32,26.32,0,0,1,1307.9,349.1Zm-15.5,29.4c0,6.8,1.4,12.2,4.2,16.1a13.07,13.07,0,0,0,11.3,5.9,13.3,13.3,0,0,0,11.3-5.9c2.8-3.9,4.2-9.3,4.2-16s-1.4-12.1-4.2-16.1a13.16,13.16,0,0,0-11.3-6,13.3,13.3,0,0,0-11.3,5.9C1293.8,366.4,1292.4,371.8,1292.4,378.5Z" transform="translate(-3.8 -8.8)"/><path class="cls-1" d="M1428.5,402.9a25.17,25.17,0,0,1-7.2,3.9,30.3,30.3,0,0,1-8.9,1.3,24.92,24.92,0,0,1-10.3-2,23,23,0,0,1-8.1-5.7,28.87,28.87,0,0,1-5.6-9.6,35.92,35.92,0,0,1-1.9-12.2,36.73,36.73,0,0,1,1.9-12.2,28.13,28.13,0,0,1,5.5-9.7,20,20,0,0,1,7.8-5.6,25.42,25.42,0,0,1,10.2-1.9,26.63,26.63,0,0,1,8.2,1.2,22.81,22.81,0,0,1,7,3.8v9.7a19.86,19.86,0,0,0-6.7-5.5,17.86,17.86,0,0,0-8.1-1.8,15,15,0,0,0-12.5,6c-3.2,4-4.7,9.3-4.7,16s1.6,12.2,4.8,16.1a16.12,16.12,0,0,0,13.1,5.9,19.16,19.16,0,0,0,8.4-1.8,19.7,19.7,0,0,0,6.9-5.4v9.5Z" transform="translate(-3.8 -8.8)"/><path class="cls-1" d="M1495.8,406.8h-8.1V350.3h8.1Z" transform="translate(-3.8 -8.8)"/><path class="cls-1" d="M1595.7,406.8l-5.1-14.6h-23.5l-4.8,14.6H1554l20.7-56.5h8.7l20.8,56.5ZM1569.2,386h19.3l-9.7-27.9Z" transform="translate(-3.8 -8.8)"/><path class="cls-1" d="M1662.2,406.8V350.3h8.1v49h32.3v7.4h-40.4Z" transform="translate(-3.8 -8.8)"/><path class="cls-1" d="M28.5,201.1a132.69,132.69,0,0,0-11-34.2c-1.7.4-3.5.9-5.4,1.3a175.35,175.35,0,0,0-8.3,38A169,169,0,0,0,28.5,201.1Z" transform="translate(-3.8 -8.8)"/><path class="cls-1" d="M153.6,81.2a180.11,180.11,0,0,0,7.3-31.9,169.64,169.64,0,0,0-38,8.3c-1,4.3-2.2,8.6-3.5,12.7a143.3,143.3,0,0,1-21.7,42,151.12,151.12,0,0,1-14.3,16.5,128.91,128.91,0,0,1-10.7,9.6,195.84,195.84,0,0,1,13.2,35.2,179.65,179.65,0,0,0,22.9-19.3A184.32,184.32,0,0,0,134,122.8,188.3,188.3,0,0,0,153.6,81.2Z" transform="translate(-3.8 -8.8)"/><path class="cls-1" d="M219.4,120.6A180.78,180.78,0,0,0,262.7,105a187.81,187.81,0,0,0,27.6-17.3,174.54,174.54,0,0,0-32.8-21.1,115.42,115.42,0,0,1-11.4,6.5A146.77,146.77,0,0,1,201,87.5a145,145,0,0,1-36.1.9,205.18,205.18,0,0,1-15.5,34.1A179.09,179.09,0,0,0,219.4,120.6Z" transform="translate(-3.8 -8.8)"/><path class="cls-1" d="M161.4,83.4Z" transform="translate(-3.8 -8.8)"/><path class="cls-1" d="M68.4,87.7a180.85,180.85,0,0,0,21,13.8,131.46,131.46,0,0,0,16.4-32.1c-1.5-.9-3.1-1.8-4.7-2.8A175.25,175.25,0,0,0,68.4,87.7Z" transform="translate(-3.8 -8.8)"/><path class="cls-1" d="M346.4,281.2a181.46,181.46,0,0,0,8.3-38,186.54,186.54,0,0,0-24.7,5.1,132.69,132.69,0,0,0,11,34.2C342.7,282.1,344.5,281.7,346.4,281.2Z" transform="translate(-3.8 -8.8)"/><path class="cls-1" d="M205,368.3a182.15,182.15,0,0,0-7.3,31.9,175.35,175.35,0,0,0,38-8.3c1-4.3,2.2-8.6,3.5-12.7a143.3,143.3,0,0,1,21.7-42,132.21,132.21,0,0,1,14.3-16.5,128.91,128.91,0,0,1,10.7-9.6,198.72,198.72,0,0,1-13.2-35.2,179.65,179.65,0,0,0-22.9,19.3,188.28,188.28,0,0,0-25.2,31.5A175.94,175.94,0,0,0,205,368.3Z" transform="translate(-3.8 -8.8)"/><path class="cls-1" d="M337.4,146.6a177.82,177.82,0,0,0-21.1-32.8,180.85,180.85,0,0,0-13.8,21,132.62,132.62,0,0,0,32,16.4C335.5,149.8,336.4,148.2,337.4,146.6Z" transform="translate(-3.8 -8.8)"/><path class="cls-1" d="M314.9,224.7a141.55,141.55,0,0,1,.7-14.4,197.35,197.35,0,0,1-34.1-15.5,180.08,180.08,0,0,0-2.5,29.9,181.93,181.93,0,0,0,4.5,40.1,186.83,186.83,0,0,0,15.6,43.3,180.37,180.37,0,0,0,17.4,27.6,174.54,174.54,0,0,0,21.1-32.8,115.42,115.42,0,0,1-6.5-11.4,146.77,146.77,0,0,1-14.4-45.1A120.7,120.7,0,0,1,314.9,224.7Z" transform="translate(-3.8 -8.8)"/><path class="cls-1" d="M42.2,335.6a180.85,180.85,0,0,0,13.8-21,136.64,136.64,0,0,0-32-16.5c-.9,1.5-1.8,3.1-2.8,4.7A170.9,170.9,0,0,0,42.2,335.6Z" transform="translate(-3.8 -8.8)"/><path class="cls-1" d="M59.6,141.4a180.37,180.37,0,0,0-17.4-27.6,179.69,179.69,0,0,0-21.1,32.8A115.42,115.42,0,0,1,27.6,158,146.77,146.77,0,0,1,42,203.1a145.38,145.38,0,0,1,1.6,21.8,141.55,141.55,0,0,1-.7,14.4A205.18,205.18,0,0,1,77,254.8a180.08,180.08,0,0,0,2.5-29.9,188,188,0,0,0-4.4-40.1A179.72,179.72,0,0,0,59.6,141.4Z" transform="translate(-3.8 -8.8)"/><path class="cls-1" d="M290.2,361.8a189.78,189.78,0,0,0-21-13.8,132.62,132.62,0,0,0-16.4,32c1.5.9,3.1,1.8,4.7,2.9A180.47,180.47,0,0,0,290.2,361.8Z" transform="translate(-3.8 -8.8)"/><path class="cls-1" d="M96,344.4a180.37,180.37,0,0,0-27.6,17.4,177.82,177.82,0,0,0,32.8,21.1,127.33,127.33,0,0,1,11.3-6.5A146.77,146.77,0,0,1,157.6,362a145,145,0,0,1,36.1-.9A201.54,201.54,0,0,1,209.2,327,183.51,183.51,0,0,0,96,344.4Z" transform="translate(-3.8 -8.8)"/><path class="cls-1" d="M160.8,400.1a186.54,186.54,0,0,0-5.1-24.7,132.69,132.69,0,0,0-34.2,11c.4,1.7.9,3.5,1.3,5.4A169.64,169.64,0,0,0,160.8,400.1Z" transform="translate(-3.8 -8.8)"/><path class="cls-1" d="M77.3,270a188.3,188.3,0,0,0-41.6-19.6,182.15,182.15,0,0,0-31.9-7.3,169.64,169.64,0,0,0,8.3,38c4.3,1,8.6,2.2,12.7,3.5a143.3,143.3,0,0,1,42,21.7,151.12,151.12,0,0,1,16.5,14.3,128.91,128.91,0,0,1,9.6,10.7,198.72,198.72,0,0,1,35.2-13.2,179.65,179.65,0,0,0-19.3-22.9A179.6,179.6,0,0,0,77.3,270Z" transform="translate(-3.8 -8.8)"/><path class="cls-1" d="M197.8,49.3A186.54,186.54,0,0,0,202.9,74a131.46,131.46,0,0,0,34.2-11c-.4-1.7-.9-3.5-1.3-5.4A175.35,175.35,0,0,0,197.8,49.3Z" transform="translate(-3.8 -8.8)"/><path class="cls-1" d="M281.2,179.5a188.3,188.3,0,0,0,41.6,19.6,182.15,182.15,0,0,0,31.9,7.3,175.35,175.35,0,0,0-8.3-38c-4.3-1-8.6-2.2-12.7-3.5a143.3,143.3,0,0,1-42-21.7,151.12,151.12,0,0,1-16.5-14.3,128.91,128.91,0,0,1-9.6-10.7,195.84,195.84,0,0,1-35.2,13.2,179.65,179.65,0,0,0,19.3,22.9A192.42,192.42,0,0,0,281.2,179.5Z" transform="translate(-3.8 -8.8)"/><polyline class="cls-2" points="495.5 59.4 424.7 58.7 424.7 315.7 495.9 315.7"/><polygon class="cls-2" points="772.8 58 516.3 58.3 515.6 112.4 612.4 112.4 612.4 313 675.7 313.1 675.9 113.5 773.2 113.5 772.8 58"/><polygon class="cls-2" points="737.6 313.5 815.5 313.3 909.7 176.8 1002.5 313.5 1080.6 313.5 909.2 55.8 737.6 313.5"/><path class="cls-2" d="M1232.4,122.8h113.5l-.3-56.7H1232V66h-.2q-66.75,2.7-109.1,37.5-44,36.6-44,86.6v6.2q0,51.3,44,87.8,45.3,37.5,108.7,37.7h114.4l-.3-55.5H1231.1q-38.7,1.5-58.7-21.6c-13.3-15.4-20-31.9-20-49.3s6.7-33.8,20.1-49.1S1205.9,123.3,1232.4,122.8Z" transform="translate(-3.8 -8.8)"/><polygon class="cls-2" points="1527.4 55.8 1355.9 313.5 1433.8 313.3 1527.9 176.8 1620.7 313.5 1698.8 313.5 1527.4 55.8"/><polygon class="cls-2" points="494.6 0 424.7 49.1 494.6 49.1 494.6 0"/></svg>